PathFileType	4	(X/Y/Z)	 1.9Hzhigh3min.trc
DataRate	CameraRate	NumFrames	NumMarkers	Units	OrigDataRate	OrigDataStartFrame	OrigNumFrames
200	200	8	39	m	200	376	1000
Frame#	Time	C7			LSH			RSH			MAN			RASI			LASI			HIPR			HIPL			RPSI			LPSI			COX			RTHI1			RTHI2			RTHI3			RTHI4			RLKN			RMKN			RSHA1			RSHA2			RSHA3			RSHA4			RHEEL			RMET5			RMET1			RTOE			LTHI1			LTHI2			LTHI3			LTHI4			LLKN			LMKN			LSHA1			LSHA2			LSHA3			LSHA4			LHEEL			LMET5			LMET1			LTOE			
		X1	Y1	Z1	X2	Y2	Z2	X3	Y3	Z3	X4	Y4	Z4	X5	Y5	Z5	X6	Y6	Z6	X7	Y7	Z7	X8	Y8	Z8	X9	Y9	Z9	X10	Y10	Z10	X11	Y11	Z11	X12	Y12	Z12	X13	Y13	Z13	X14	Y14	Z14	X15	Y15	Z15	X16	Y16	Z16	X17	Y17	Z17	X18	Y18	Z18	X19	Y19	Z19	X20	Y20	Z20	X21	Y21	Z21	X22	Y22	Z22	X23	Y23	Z23	X24	Y24	Z24	X25	Y25	Z25	X26	Y26	Z26	X27	Y27	Z27	X28	Y28	Z28	X29	Y29	Z29	X30	Y30	Z30	X31	Y31	Z31	X32	Y32	Z32	X33	Y33	Z33	X34	Y34	Z34	X35	Y35	Z35	X36	Y36	Z36	X37	Y37	Z37	X38	Y38	Z38	X39	Y39	Z39	
376	1.8800	-0.297120	1.493096	-0.551283	-0.239669	1.474609	-0.737628	-0.271114	1.470753	-0.363891	-0.154514	1.441001	-0.547037	-0.176935	0.973602	-0.447944	-0.175732	0.977940	-0.681192	-0.242765	1.051796	-0.395181	-0.224919	1.046983	-0.726645	-0.347870	1.046839	-0.526292	-0.348551	1.046782	-0.594825	-0.349782	1.046324	-0.563006	-0.253846	0.802308	-0.362269	-0.233462	0.746951	-0.353158	-0.171352	0.766525	-0.360017	-0.185362	0.824990	-0.371714	-0.187192	0.486549	-0.373922	-0.171257	0.474684	-0.486076	-0.293644	0.380361	-0.344565	-0.313157	0.343579	-0.354676	-0.256543	0.321742	-0.355741	-0.241092	0.358641	-0.349889	-0.428110	0.112647	-0.435181	-0.277229	0.035914	-0.371430	-0.223423	0.047425	-0.435140	-0.200808	0.037380	-0.433965	-0.248089	0.771988	-0.768183	-0.226215	0.714225	-0.772750	-0.164222	0.731572	-0.768156	-0.177056	0.790317	-0.762818	-0.191649	0.480204	-0.740454	-0.167736	0.473086	-0.637487	-0.305513	0.360046	-0.750715	-0.323569	0.324474	-0.742061	-0.265162	0.301505	-0.745727	-0.254309	0.343282	-0.754528	-0.417582	0.097850	-0.647948	-0.267115	0.034457	-0.730420	-0.210698	0.049578	-0.660035	-0.184886	0.037190	-0.663510	
377	1.8850	-0.296623	1.485650	-0.551330	-0.239068	1.466055	-0.738253	-0.270476	1.462968	-0.363512	-0.153983	1.432812	-0.547052	-0.178156	0.965909	-0.447628	-0.176841	0.970357	-0.680756	-0.243994	1.043500	-0.394504	-0.225760	1.038735	-0.726717	-0.349156	1.039018	-0.526070	-0.349803	1.039074	-0.594644	-0.351105	1.038552	-0.562814	-0.253996	0.794685	-0.361704	-0.233023	0.739526	-0.352498	-0.171096	0.759571	-0.359844	-0.185675	0.817847	-0.371791	-0.184375	0.479509	-0.373491	-0.168251	0.467743	-0.485231	-0.291872	0.374479	-0.344381	-0.312033	0.338130	-0.354739	-0.255820	0.315377	-0.356078	-0.239726	0.351956	-0.349999	-0.430635	0.107431	-0.436505	-0.277927	0.035533	-0.371199	-0.223687	0.047447	-0.435323	-0.200852	0.037370	-0.433916	-0.247488	0.764464	-0.768670	-0.225105	0.706909	-0.773339	-0.163292	0.724764	-0.768358	-0.176650	0.783387	-0.762868	-0.188480	0.473656	-0.740896	-0.164406	0.466400	-0.638422	-0.303359	0.354665	-0.751572	-0.321896	0.319305	-0.742760	-0.263711	0.295659	-0.745699	-0.252293	0.337264	-0.754709	-0.419616	0.092796	-0.647800	-0.266914	0.034365	-0.730781	-0.210857	0.049389	-0.659827	-0.185051	0.037124	-0.663590	
378	1.8900	-0.296109	1.478294	-0.551378	-0.238537	1.457473	-0.738933	-0.269867	1.455168	-0.363082	-0.153462	1.424569	-0.547088	-0.179419	0.958195	-0.447321	-0.178007	0.962754	-0.680325	-0.245266	1.035042	-0.393799	-0.226639	1.030363	-0.726798	-0.350527	1.031050	-0.525812	-0.351166	1.031221	-0.594428	-0.352541	1.030640	-0.562589	-0.254169	0.786993	-0.361115	-0.232629	0.732055	-0.351794	-0.170861	0.752580	-0.359513	-0.185996	0.810670	-0.371681	-0.181620	0.472601	-0.373061	-0.165215	0.460882	-0.484431	-0.289892	0.368658	-0.344237	-0.310631	0.332698	-0.354814	-0.254777	0.309148	-0.356475	-0.238113	0.345433	-0.350196	-0.432857	0.102281	-0.438040	-0.278367	0.035165	-0.371137	-0.223810	0.047235	-0.435237	-0.200802	0.037340	-0.433744	-0.246920	0.756873	-0.769122	-0.224007	0.699539	-0.773860	-0.162372	0.717940	-0.768644	-0.176277	0.776431	-0.763051	-0.185476	0.467271	-0.741242	-0.161066	0.459792	-0.639256	-0.300912	0.349200	-0.752305	-0.319846	0.314016	-0.743383	-0.261814	0.289889	-0.745442	-0.249944	0.331342	-0.754670	-0.421326	0.087898	-0.647228	-0.267056	0.034169	-0.731209	-0.211043	0.049262	-0.659837	-0.185151	0.037067	-0.663880	
379	1.8950	-0.295586	1.471042	-0.551426	-0.238101	1.448914	-0.739641	-0.269283	1.447410	-0.362650	-0.152931	1.416321	-0.547141	-0.180722	0.950476	-0.447029	-0.179241	0.955168	-0.679918	-0.246598	1.026462	-0.393091	-0.227579	1.021904	-0.726875	-0.351986	1.022963	-0.525520	-0.352677	1.023254	-0.594173	-0.354092	1.022601	-0.562331	-0.254292	0.779279	-0.360531	-0.232304	0.724569	-0.351068	-0.170670	0.745579	-0.359020	-0.186333	0.803507	-0.371350	-0.178936	0.465837	-0.372632	-0.162183	0.454156	-0.483714	-0.287767	0.362902	-0.344140	-0.309003	0.327284	-0.354949	-0.253456	0.303060	-0.356988	-0.236309	0.339072	-0.350500	-0.434764	0.097319	-0.439781	-0.278827	0.034860	-0.371006	-0.223855	0.047025	-0.435086	-0.200730	0.037290	-0.433438	-0.246404	0.749262	-0.769516	-0.222944	0.692158	-0.774295	-0.161489	0.711127	-0.769000	-0.175951	0.769489	-0.763349	-0.182626	0.461043	-0.741455	-0.157757	0.453314	-0.639898	-0.298237	0.343625	-0.752775	-0.317480	0.308602	-0.743793	-0.259556	0.284158	-0.744863	-0.247329	0.325474	-0.754304	-0.422744	0.083216	-0.646146	-0.267452	0.034009	-0.731484	-0.211237	0.049100	-0.659814	-0.185217	0.037010	-0.664209	
380	1.9000	-0.295085	1.463901	-0.551476	-0.237744	1.440436	-0.740308	-0.268754	1.439786	-0.362263	-0.152378	1.408111	-0.547209	-0.182071	0.942782	-0.446751	-0.180548	0.947632	-0.679543	-0.248008	1.017806	-0.392403	-0.228610	1.013396	-0.726933	-0.353537	1.014812	-0.525203	-0.354348	1.015208	-0.593879	-0.355750	1.014461	-0.562045	-0.254425	0.771589	-0.359950	-0.232042	0.717083	-0.350376	-0.170552	0.738618	-0.358367	-0.186706	0.796388	-0.370790	-0.176334	0.459224	-0.372224	-0.159161	0.447636	-0.483114	-0.285570	0.357194	-0.344115	-0.307224	0.321895	-0.355191	-0.251939	0.297105	-0.357654	-0.234388	0.332868	-0.350930	-0.436341	0.092654	-0.441696	-0.279408	0.034657	-0.370940	-0.223941	0.046873	-0.435080	-0.200656	0.037199	-0.433162	-0.245979	0.741689	-0.769844	-0.221967	0.684815	-0.774620	-0.160693	0.704379	-0.769405	-0.175709	0.762612	-0.763745	-0.179904	0.454957	-0.741488	-0.154500	0.447032	-0.640261	-0.295433	0.337952	-0.752860	-0.314915	0.303090	-0.743817	-0.257059	0.278435	-0.743874	-0.244559	0.319634	-0.753555	-0.423879	0.078778	-0.644545	-0.267848	0.034039	-0.731414	-0.211394	0.048980	-0.659590	-0.185266	0.036964	-0.664590	
381	1.9050	-0.294644	1.456852	-0.551536	-0.237491	1.432102	-0.740908	-0.268329	1.432334	-0.361950	-0.151806	1.399999	-0.547286	-0.183464	0.935142	-0.446490	-0.181941	0.940181	-0.679213	-0.249524	1.009120	-0.391759	-0.229765	1.004888	-0.726964	-0.355164	1.006673	-0.524885	-0.356166	1.007146	-0.593551	-0.357477	1.006303	-0.561732	-0.254626	0.763976	-0.359418	-0.231875	0.709679	-0.349763	-0.170547	0.731730	-0.357573	-0.187140	0.789373	-0.370016	-0.173782	0.452789	-0.371859	-0.156126	0.441386	-0.482652	-0.283368	0.351574	-0.344210	-0.305366	0.316556	-0.355587	-0.250295	0.291285	-0.358487	-0.232416	0.326819	-0.351487	-0.437636	0.088333	-0.443804	-0.280020	0.034529	-0.371114	-0.224062	0.046775	-0.435281	-0.200643	0.037104	-0.432973	-0.245699	0.734224	-0.770081	-0.221143	0.677579	-0.774809	-0.160045	0.697747	-0.769837	-0.175609	0.755860	-0.764227	-0.177242	0.449006	-0.741315	-0.151302	0.441017	-0.640266	-0.292597	0.332261	-0.752455	-0.312264	0.297562	-0.743324	-0.254464	0.272757	-0.742453	-0.241747	0.313839	-0.752419	-0.424733	0.074657	-0.642484	-0.268297	0.034189	-0.731128	-0.211444	0.048855	-0.659281	-0.185229	0.036918	-0.665085	
382	1.9100	-0.294289	1.449880	-0.551597	-0.237356	1.423986	-0.741411	-0.267997	1.425105	-0.361750	-0.151218	1.392052	-0.547360	-0.184901	0.927598	-0.446243	-0.183439	0.932849	-0.678940	-0.251167	1.000474	-0.391186	-0.231091	0.996429	-0.726961	-0.356841	0.998683	-0.524578	-0.358101	0.999192	-0.593197	-0.359226	0.998293	-0.561405	-0.254939	0.756516	-0.358982	-0.231850	0.702418	-0.349248	-0.170686	0.724985	-0.356649	-0.187678	0.782521	-0.369054	-0.171247	0.446550	-0.371571	-0.153051	0.435487	-0.482332	-0.281199	0.346071	-0.344462	-0.303478	0.311306	-0.356181	-0.248582	0.285629	-0.359482	-0.230436	0.320952	-0.352162	-0.438685	0.084379	-0.446129	-0.280615	0.034501	-0.371484	-0.224163	0.046710	-0.435589	-0.200642	0.037026	-0.432833	-0.245613	0.726949	-0.770184	-0.220535	0.670528	-0.774829	-0.159600	0.691297	-0.770277	-0.175696	0.749292	-0.764771	-0.174549	0.443201	-0.740937	-0.148119	0.435365	-0.639858	-0.289807	0.326707	-0.751561	-0.309620	0.292164	-0.742276	-0.251877	0.267223	-0.740685	-0.238989	0.308183	-0.750963	-0.425324	0.070991	-0.640130	-0.268836	0.034395	-0.730694	-0.211356	0.048695	-0.659090	-0.185100	0.036869	-0.665707	
383	1.9150	-0.294031	1.442989	-0.551651	-0.237338	1.416162	-0.741785	-0.267775	1.418170	-0.361670	-0.150642	1.384364	-0.547421	-0.186376	0.920202	-0.446008	-0.185059	0.925672	-0.678721	-0.252963	0.991940	-0.390701	-0.232631	0.988091	-0.726913	-0.358515	0.991003	-0.524292	-0.360088	0.991499	-0.592822	-0.360939	0.990576	-0.561067	-0.255392	0.749270	-0.358681	-0.231998	0.695319	-0.348855	-0.171007	0.718443	-0.355641	-0.188360	0.775905	-0.367959	-0.168688	0.440551	-0.371379	-0.149913	0.430002	-0.482156	-0.279068	0.340761	-0.344884	-0.301576	0.306234	-0.356985	-0.246826	0.280200	-0.360605	-0.228466	0.315325	-0.352935	-0.439481	0.080791	-0.448614	-0.281211	0.034534	-0.371948	-0.224204	0.046643	-0.435850	-0.200602	0.036959	-0.432671	-0.245745	0.719943	-0.770112	-0.220172	0.663734	-0.774642	-0.159396	0.685090	-0.770702	-0.175993	0.742985	-0.765351	-0.171656	0.437601	-0.740367	-0.144874	0.430202	-0.639016	-0.287084	0.321519	-0.750282	-0.307001	0.287135	-0.740759	-0.249340	0.262010	-0.738732	-0.236311	0.302852	-0.749334	-0.425648	0.067878	-0.637661	-0.269433	0.034673	-0.730136	-0.211233	0.048501	-0.658915	-0.185006	0.036834	-0.666335	
